<svg xmlns="http://www.w3.org/2000/svg" viewBox="0 0 64 64" fill="none">
  <defs>
    <linearGradient id="g" x1="0" y1="0" x2="1" y2="1">
      <stop offset="0%" stop-color="#16a34a"/>
      <stop offset="100%" stop-color="#22c55e"/>
    </linearGradient>
  </defs>
  <rect width="64" height="64" rx="14" fill="url(#g)"/>
  <g fill="#fff">
    <path d="M20 22a6 6 0 0 1 6-6h12a6 6 0 0 1 6 6v4a6 6 0 0 1-6 6H26a6 6 0 0 1-6-6v-4Z"/>
    <path d="M16 42a6 6 0 0 1 6-6h8v4h-8a2 2 0 1 0 0 4h20a6 6 0 0 0 6-6v-6h4v6a10 10 0 0 1-10 10H22a6 6 0 0 1-6-6Z"/>
  </g>
</svg>
